M48
INCH,TZ
T1C0.032
T2C0.040
T3C0.091
T4C0.118
%
G90
G05
T1
X7.3Y-2.8
X7.3Y-2.9
X7.5Y-2.1
X7.5Y-2.2
X7.5Y-2.3
X7.5Y-2.4
X7.5293Y-2.9
X7.6Y-1.7063
X7.6Y-1.785
X7.6Y-1.9
X7.6Y-2.8293
X7.65Y-3.1
X7.6707Y-2.9
X7.7Y-1.7063
X7.7Y-1.785
X7.7Y-1.9
X7.75Y-3.1
X7.8Y-2.1
X7.8Y-2.2
X7.8Y-2.3
X7.8Y-2.4
X7.8Y-2.5
X7.8Y-2.65
X7.8Y-2.8
X7.8Y-2.95
X8.1Y-2.5
X8.1Y-2.65
X8.1Y-2.8
X8.1Y-2.95
T2
X7.2Y-3.1
X7.25Y-2.1
X7.25Y-2.2
X7.25Y-2.3
X7.25Y-2.4
X7.3Y-3.1
X7.4Y-3.1
X8.Y-3.1
X8.05Y-2.1
X8.05Y-2.2
X8.05Y-2.3
X8.05Y-2.4
X8.1Y-3.1
T3
X7.4138Y-1.6
X7.8862Y-1.6
T4
X7.65Y-2.6
T0
M30
